<?xml version="1.0" encoding="utf-8"?>
<!-- Generator: Adobe Illustrator 26.1.0, SVG Export Plug-In . SVG Version: 6.00 Build 0)  -->
<svg version="1.1" id="Layer_1" xmlns="http://www.w3.org/2000/svg" xmlns:xlink="http://www.w3.org/1999/xlink" x="0px" y="0px"
	 viewBox="0 0 1800 1200" style="enable-background:new 0 0 1800 1200;" xml:space="preserve">
<style type="text/css">
	.st0{fill:#FFE9C2;}
	.st1{fill:#E81C30;}
	.st2{fill:none;stroke:#000000;stroke-miterlimit:10;}
</style>
<rect x="0.3" y="-0.43" class="st0" width="1800" height="1200"/>
<polygon class="st1" points="1510.22,673.67 1413.33,673.67 1421.11,639.91 1510.22,639.91 "/>
<g>
	<path d="M1471.92,623.97v-3.9c0-14.43,6.15-23.69,15.13-31.8c1.71-1.53,3.47-2.95,5.18-4.32c5.96-4.79,11.19-9.18,11.19-15.95
		c0-7.77-5.19-12.4-13.48-12.4c-7.55,0-13.31,4.8-15.81,13.16l-0.31,1.05h-36.92c2.71-30.36,25.81-47.01,56.14-47.01
		c29.14,0,49.49,16.46,49.49,40.85c0,16.63-9.27,24.98-17.46,32.35c-9.9,9.05-14.65,15.94-14.84,24.1l-0.03,3.86H1471.92z"/>
</g>
<polygon points="1390.71,525.36 1373,617.42 1372.77,617.42 1354.05,525.36 1318.5,525.36 1299.99,617.42 1299.78,617.42 
	1282.07,525.36 1241.77,525.36 1276,673.68 1316.51,673.68 1335.52,582.78 1335.74,582.78 1355.16,673.68 1395.23,673.68 
	1429.46,525.36 "/>
<g>
	<path d="M708.5,673.69v-64c0-15.73-15.66-20.24-23.44-5.94c-2.7,4.96-3.97,12.17-3.97,21.96v47.98h-37.96V525.38h37.96v64.72
		c12.66-26.82,42.46-30.24,57.15-13.94c5.34,5.92,8.22,14.45,8.22,25.41v72.13H708.5z"/>
	<path d="M429.13,673.69v-64c0-15.73-15.66-20.24-23.44-5.94c-2.7,4.96-3.97,12.17-3.97,21.96v47.98h-37.96V525.38h37.96v64.72
		c12.66-26.82,42.45-30.24,57.15-13.94c5.34,5.92,8.22,14.45,8.22,25.41v72.13H429.13z"/>
</g>
<rect x="481.87" y="568.98" width="37.96" height="104.71"/>
<g>
	<path d="M632.76,634.89c-1.61,23.56-19.41,41.46-47.15,41.46c-33.47,0-54.25-21.08-54.25-55.01c0-33.43,20.96-55.01,53.42-55.01
		c25.6,0,45.41,12.81,47.49,41.34h-32.92c-1.43-7.02-5.31-14.34-14.44-14.34c-14.59,0-16.93,17.91-16.93,28.02
		c0,12.25,3.39,27.88,16.86,27.88c6.72,0,11.88-5.35,14.44-14.32H632.76z"/>
	<path d="M500.83,562.02c-10.47,0-21.06-6.68-21.06-19.46c0-12.9,10.59-19.66,21.06-19.66c10.46,0,21.05,6.75,21.05,19.66
		C521.89,555.34,511.29,562.02,500.83,562.02"/>
</g>
<polygon points="317.44,525.38 299.75,617.46 299.52,617.46 280.81,525.38 245.28,525.38 226.78,617.46 226.56,617.46 
	208.86,525.38 168.58,525.38 202.79,673.69 243.29,673.69 262.29,582.84 262.5,582.84 281.91,673.69 321.96,673.69 356.17,525.38 
	"/>
<g>
	<path d="M810.04,624.01v-3.89c0-14.42,6.14-23.67,15.13-31.78c1.71-1.53,3.47-2.94,5.17-4.32c5.96-4.79,11.18-9.17,11.18-15.94
		c0-7.76-5.19-12.39-13.47-12.39c-7.55,0-13.31,4.8-15.8,13.16l-0.31,1.05h-36.9c2.71-30.34,25.8-46.98,56.11-46.98
		c29.12,0,49.46,16.45,49.46,40.83c0,16.62-9.27,24.97-17.45,32.33c-9.89,9.05-14.64,15.93-14.83,24.08l-0.03,3.86H810.04z"/>
</g>
<rect x="764.56" y="639.94" class="st1" width="83.75" height="33.74"/>
<g>
	<path class="st2" d="M1604.27,762.82c0,26.4-21.6,48-48,48h-328.66c-26.4,0-48-21.6-48-48V434.16c0-26.4,21.6-48,48-48h328.66
		c26.4,0,48,21.6,48,48V762.82z"/>
</g>
</svg>
